# xmcd CD database file
#
# Track frame offsets:
#        150
#        15735
#        33622
#        46996
#        67112
#        84160
#        95631
#        109295
#        125478
#        142933
#        161392
#        176003
#        190663
#
# Disc length: 3180 seconds
#
# Revision: 0
# Processed by: cddbd v1.5.2PL0 Copyright (c) Steve Scherf et al.
# Submitted via: CUERipper 2.1.5
#
DISCID=ab0c6a0d
DTITLE=Brandi Carlile - The Story
DYEAR=2007
DGENRE=
TTITLE0=Late Morning Lullaby
TTITLE1=The Story
TTITLE2=Turpentine
TTITLE3=My Song
TTITLE4=Wasted
TTITLE5=Have You Ever
TTITLE6=Josephine
TTITLE7=Losing Heart
TTITLE8=Cannonball
TTITLE9=Until I Die
TTITLE10=Downpour
TTITLE11=Shadow on the Wall
TTITLE12=Again Today - [silence] - Hiding My Heart
EXTD=
EXTT0=
EXTT1=
EXTT2=
EXTT3=
EXTT4=
EXTT5=
EXTT6=
EXTT7=
EXTT8=
EXTT9=
EXTT10=
EXTT11=
EXTT12=
PLAYORDER=
